<?xml version="1.0" standalone="no"?> <!DOCTYPE svg PUBLIC "-//W3C//DTD SVG 20010904//EN" "http://www.w3.org/TR/2001/REC-SVG-20010904/DTD/svg10.dtd"> <svg version="1.0" xmlns="http://www.w3.org/2000/svg" width="600.000000pt" height="375.000000pt" viewBox="0 0 600.000000 375.000000" preserveAspectRatio="xMidYMid meet"> <g transform="translate(0.000000,375.000000) scale(0.050000,-0.050000)" fill="#ffffff" stroke="none"> <path d="M0 3750 l0 -3750 4531 0 4530 0 -73 115 c-41 63 -242 381 -448 705 -205 325 -797 1258 -1316 2074 -951 1499 -993 1566 -981 1574 4 3 284 -62 623 -144 339 -82 620 -145 624 -141 8 8 -178 972 -507 2627 l-135 680 -3424 5 -3424 5 0 -3750z"/> <path d="M8727 7425 c26 -41 493 -777 1037 -1635 544 -858 1130 -1780 1301 -2050 170 -269 308 -492 306 -495 -3 -3 -287 62 -632 144 -344 83 -628 149 -631 146 -2 -3 151 -797 341 -1765 l345 -1760 603 -5 603 -6 0 3751 0 3750 -1660 0 -1661 0 48 -75z"/> </g> </svg>